<?xml version="1.0" encoding="UTF-8"?>
<svg version="1.1" xmlns="http://www.w3.org/2000/svg" width="106" height="26" viewBox="0 0 106 26">
<path d="M0 0 C34.98 0 69.96 0 106 0 C106 8.58 106 17.16 106 26 C71.02 26 36.04 26 0 26 C0 17.42 0 8.84 0 0 Z " fill="#0E1011" transform="translate(0,0)"/>
<path d="M0 0 C7.37042925 -0.36248013 7.37042925 -0.36248013 10.0625 1.1875 C11 3 11 3 10.875 5.5625 C10 8 10 8 7 10 C5.68 10 4.36 10 3 10 C3 11.32 3 12.64 3 14 C2.01 14 1.02 14 0 14 C0 9.38 0 4.76 0 0 Z " fill="#529C9A" transform="translate(7,6)"/>
<path d="M0 0 C2.67927341 4.01891012 2.15601248 6.24161923 2 11 C-0.97 11 -3.94 11 -7 11 C-7.38218767 9.34385343 -7.71395102 7.67542976 -8 6 C-7 5 -7 5 -3.9375 4.9375 C-2.4834375 4.9684375 -2.4834375 4.9684375 -1 5 C-1.33 4.34 -1.66 3.68 -2 3 C-3.65 3 -5.3 3 -7 3 C-7 2.34 -7 1.68 -7 1 C-4.46578263 -0.26710868 -2.80561762 -0.28056176 0 0 Z " fill="#427D7B" transform="translate(49,9)"/>
<path d="M0 0 C3.3 0 6.6 0 10 0 C10 3.63 10 7.26 10 11 C9.01 11 8.02 11 7 11 C7 8.36 7 5.72 7 3 C5.68 3 4.36 3 3 3 C3 5.64 3 8.28 3 11 C2.01 11 1.02 11 0 11 C0 7.37 0 3.74 0 0 Z " fill="#498A88" transform="translate(19,9)"/>
<path d="M0 0 C3 1 3 1 4.1875 3.0625 C4.455625 3.701875 4.72375 4.34125 5 5 C5.66 3.35 6.32 1.7 7 0 C7.99 0 8.98 0 10 0 C6.81954887 11.61654135 6.81954887 11.61654135 4 15 C2.68 15 1.36 15 0 15 C0 14.01 0 13.02 0 12 C0.99 12 1.98 12 3 12 C2.7834375 11.46890625 2.566875 10.9378125 2.34375 10.390625 C1.92609375 9.33101562 1.92609375 9.33101562 1.5 8.25 C1.2215625 7.55390625 0.943125 6.8578125 0.65625 6.140625 C0 4 0 4 0 0 Z " fill="#4A8D8B" transform="translate(31,9)"/>
<path d="M0 0 C6.0546875 -0.1953125 6.0546875 -0.1953125 8 0 C10 2 10 2 10.1953125 4.1640625 C10.17210937 4.97617188 10.14890625 5.78828125 10.125 6.625 C10.10695313 7.44226563 10.08890625 8.25953125 10.0703125 9.1015625 C10.03550781 10.04128906 10.03550781 10.04128906 10 11 C9.01 11 8.02 11 7 11 C7 8.36 7 5.72 7 3 C5.68 3 4.36 3 3 3 C3 5.64 3 8.28 3 11 C2.01 11 1.02 11 0 11 C0 7.37 0 3.74 0 0 Z " fill="#4E9592" transform="translate(52,9)"/>
<path d="M0 0 C0.99 0 1.98 0 3 0 C3.33 2.64 3.66 5.28 4 8 C4.66 8 5.32 8 6 8 C6.33 5.36 6.66 2.72 7 0 C7.99 0 8.98 0 10 0 C10 3.63 10 7.26 10 11 C7.03 11 4.06 11 1 11 C-0.20272819 8.59454362 -0.10071472 7.05003047 -0.0625 4.375 C-0.05347656 3.55773437 -0.04445313 2.74046875 -0.03515625 1.8984375 C-0.02355469 1.27195312 -0.01195313 0.64546875 0 0 Z " fill="#4D9390" transform="translate(85,9)"/>
<path d="M0 0 C0.66 0 1.32 0 2 0 C2.33 1.32 2.66 2.64 3 4 C4.2065625 3.7215625 4.2065625 3.7215625 5.4375 3.4375 C6.7059375 3.2209375 6.7059375 3.2209375 8 3 C9 4 9 4 9.09765625 6.28515625 C9.08605469 7.20167969 9.07445313 8.11820313 9.0625 9.0625 C9.05347656 9.98160156 9.04445313 10.90070312 9.03515625 11.84765625 C9.02355469 12.55792969 9.01195313 13.26820312 9 14 C8.34 14 7.68 14 7 14 C6.67 11.69 6.34 9.38 6 7 C5.01 6.67 4.02 6.34 3 6 C3 8.64 3 11.28 3 14 C2.01 14 1.02 14 0 14 C0 9.38 0 4.76 0 0 Z " fill="#4E9492" transform="translate(74,6)"/>
<path d="M0 0 C1.2684375 0.12375 1.2684375 0.12375 2.5625 0.25 C3.2225 1.24 3.8825 2.23 4.5625 3.25 C1.5925 2.755 1.5925 2.755 -1.4375 2.25 C-0.04554085 5.0339183 1.71825779 5.22898997 4.5625 6.25 C4.2325 7.9 3.9025 9.55 3.5625 11.25 C0.6875 11.4375 0.6875 11.4375 -2.4375 11.25 C-3.0975 10.26 -3.7575 9.27 -4.4375 8.25 C-1.4675 8.745 -1.4675 8.745 1.5625 9.25 C1.5625 8.59 1.5625 7.93 1.5625 7.25 C-0.0875 6.92 -1.7375 6.59 -3.4375 6.25 C-3.480221 4.58388095 -3.47813832 2.91617115 -3.4375 1.25 C-2.4375 0.25 -2.4375 0.25 0 0 Z " fill="#4E9491" transform="translate(67.4375,8.75)"/>
<path d="M0 0 C-0.3125 2.375 -0.3125 2.375 -1 5 C-4 7 -4 7 -6.1875 6.625 C-6.785625 6.41875 -7.38375 6.2125 -8 6 C-7.01 5.67 -6.02 5.34 -5 5 C-5.99 4.67 -6.98 4.34 -8 4 C-8 2.35 -8 0.7 -8 -1 C-4.59745511 -2.2151946 -3.06748874 -1.86240388 0 0 Z " fill="#498B89" transform="translate(18,9)"/>
<path d="M0 0 C1.2065625 0.0309375 1.2065625 0.0309375 2.4375 0.0625 C0.9525 2.0425 0.9525 2.0425 -0.5625 4.0625 C0.4275 4.3925 1.4175 4.7225 2.4375 5.0625 C0.7875 5.3925 -0.8625 5.7225 -2.5625 6.0625 C-2.94468767 4.40635343 -3.27645102 2.73792976 -3.5625 1.0625 C-2.5625 0.0625 -2.5625 0.0625 0 0 Z " fill="#4D9290" transform="translate(44.5625,13.9375)"/>
<path d="M0 0 C2.31 0 4.62 0 7 0 C7.33 0.99 7.66 1.98 8 3 C5.03 3.66 2.06 4.32 -1 5 C-0.67 3.35 -0.34 1.7 0 0 Z " fill="#1A292A" transform="translate(40,11)"/>
<path d="M0 0 C1.32 0.33 2.64 0.66 4 1 C4 2.32 4 3.64 4 5 C2.68 5 1.36 5 0 5 C0 3.35 0 1.7 0 0 Z " fill="#131A1B" transform="translate(10,8)"/>
<path d="M0 0 C0.33 1.32 0.66 2.64 1 4 C2.65 4.33 4.3 4.66 6 5 C6 5.66 6 6.32 6 7 C3.69 6.67 1.38 6.34 -1 6 C-0.67 4.02 -0.34 2.04 0 0 Z " fill="#141C1C" transform="translate(63,11)"/>
</svg>
